<svg id="Layer_1" data-name="Layer 1" xmlns="http://www.w3.org/2000/svg" viewBox="0 0 48 48"><defs><style>.cls-1{fill:none;}.cls-2{fill:#909090;}</style></defs><title>camera</title><path class="cls-1" d="M0,0H48V48H0Z"/><path class="cls-2" d="M39.05,25.51a.62.62,0,0,0-.23-.49.34.34,0,0,0-.46,0c-6.94,5.22-12.15,6.07-15.15,6.07-.23,0-.35.12-.46.37a.54.54,0,0,0,.11.6A32.72,32.72,0,0,0,32.23,38h.23a.42.42,0,0,0,.35-.12,16.67,16.67,0,0,0,6.24-12.38Z"/><path class="cls-2" d="M28.64,28.54a.61.61,0,0,0,0,.61c.12.12.23.24.35.24h.12a34.53,34.53,0,0,0,9.59-5.58.66.66,0,0,0,.24-.49,16,16,0,0,0-7.06-12,.32.32,0,0,0-.46,0,.62.62,0,0,0-.23.48c.81,8.75-.93,14-2.55,16.76Z"/><path class="cls-2" d="M16.73,11.54c7.63,3.64,11.1,7.89,12.49,10.81a.6.6,0,0,0,.46.24h.12c.23,0,.35-.24.46-.36a37.32,37.32,0,0,0,.23-11.54c0-.12-.11-.37-.23-.37a14.62,14.62,0,0,0-13.41.37.62.62,0,0,0-.23.48c-.23,0-.12.25.11.37Z"/><path class="cls-2" d="M8.52,24.05a.65.65,0,0,0,.23.48c.12,0,.12.13.23.13s.24,0,.24-.13c6.93-5.22,12.14-6.07,15.14-6.07.24,0,.35-.12.47-.36a.56.56,0,0,0-.12-.61,32.72,32.72,0,0,0-9.37-5.95c-.11-.12-.34,0-.46,0A16.73,16.73,0,0,0,8.52,24.05Z"/><path class="cls-2" d="M18.93,21.13a.55.55,0,0,0,0-.6.49.49,0,0,0-.58-.13A33.37,33.37,0,0,0,8.75,26a.65.65,0,0,0-.23.49,16,16,0,0,0,7.06,12c.11,0,.11.12.23.12h0a.51.51,0,0,0,.46-.48V38c-.81-9,1-14.08,2.66-16.88Z"/><path class="cls-2" d="M30.84,38.14c-7.63-3.65-11.1-7.9-12.49-10.81a.45.45,0,0,0-.46-.25c-.23,0-.35.25-.46.37A37.59,37.59,0,0,0,17.19,39c0,.12.12.36.24.36a14.39,14.39,0,0,0,6.36,1.46A14.64,14.64,0,0,0,30.84,39a.66.66,0,0,0,.23-.49c0-.12-.11-.24-.23-.36Z"/><path class="cls-2" d="M3.2,15.79a1,1,0,0,0,.93-1.09v-9c0-.12.11-.24.34-.24h8.45a1,1,0,0,0,1-1,1.07,1.07,0,0,0-1-1.09H4.47A2.25,2.25,0,0,0,2.28,5.71v9a.86.86,0,0,0,.92,1.09Z"/><path class="cls-2" d="M43.1,3.52H34.54a1,1,0,0,0-1,1,1.15,1.15,0,0,0,1,1.1H43.1a.26.26,0,0,1,.23.24v9a.93.93,0,0,0,.92,1,.94.94,0,0,0,.93-1v-9A2.09,2.09,0,0,0,43.1,3.52Z"/><path class="cls-2" d="M44.37,33.76a1,1,0,0,0-.92,1.1v8.86a.27.27,0,0,1-.24.25H34.66a1,1,0,0,0-.93,1.09.93.93,0,0,0,.93,1h8.55a2.25,2.25,0,0,0,2.2-2.31v-9a1.13,1.13,0,0,0-1-1Z"/><path class="cls-2" d="M12.92,44.09H4.36a.25.25,0,0,1-.23-.25V35a1.05,1.05,0,0,0-.93-1.09,1.06,1.06,0,0,0-1,1.09v8.86a2.25,2.25,0,0,0,2.2,2.31h8.56a1,1,0,0,0,1-1c-.12-.73-.47-1.09-1-1.09Z"/></svg>