<svg id="Layer_1" data-name="Layer 1" xmlns="http://www.w3.org/2000/svg" viewBox="0 0 48 48"><defs><style>.cls-2{fill:#909090}</style></defs><path d="M0 0h48v48H0z" fill="none"/><path class="cls-2" d="M35.88 42.61v-32A3.91 3.91 0 0031.83 7h-3.62V3h-9.36v4h-3.41a3.82 3.82 0 00-4 3.64v32a3.9 3.9 0 004 3.64h16.39c2.34-.12 4.05-1.7 4.05-3.64zm-2.67 0a1.36 1.36 0 01-1.38 1.21H15.44a1.28 1.28 0 01-1.38-1.21v-32a1.37 1.37 0 011.38-1.21h16.39a1.27 1.27 0 011.38 1.21v32z"/><path class="cls-2" d="M32.04 42.48v-31.7h-16.6v31.7h16.6z"/><path fill="#fff" d="M24.7 16.88l-5 11.37 4.58-1.12-2.13 8.62 5.53-11.87L23 25.13l1.7-8.25z"/></svg>