<svg id="Layer_1" data-name="Layer 1" xmlns="http://www.w3.org/2000/svg" viewBox="0 0 48 48"><defs><style>.cls-1{fill:none;}.cls-2{fill:#909090;}</style></defs><title>Display</title><path class="cls-1" d="M0,0H48V48H0Z"/><path class="cls-2" d="M34.06,2.67H13.77a3.07,3.07,0,0,0-3.1,3V43.38a3.07,3.07,0,0,0,3.1,2.95H34.06a3.08,3.08,0,0,0,3.11-2.95V5.62a3.17,3.17,0,0,0-3.11-2.95ZM20.57,4.88H27a.32.32,0,0,1,.36.37.32.32,0,0,1-.36.37H20.57c-.23,0-.35-.12-.35-.37a.38.38,0,0,1,.35-.37ZM23.92,45a1.48,1.48,0,1,1,1.55-1.48A1.69,1.69,0,0,1,23.92,45Zm11-4.06H12.7V7.34H34.9V40.92Z"/></svg>