<svg xmlns="http://www.w3.org/2000/svg" height="600pt" version="1.1" viewBox="-70 0 600 600" width="600pt">
<g id="surface1">
<path d="M 390 470 C 384.476562 470 380 474.476562 380 480 L 380 570 C 380 575.523438 375.523438 580 370 580 L 90 580 C 84.476562 580 80 575.523438 80 570 L 80 480 C 80 474.476562 75.523438 470 70 470 C 64.476562 470 60 474.476562 60 480 L 60 570 C 60 586.566406 73.433594 600 90 600 L 370 600 C 386.566406 600 400 586.566406 400 570 L 400 480 C 400 474.476562 395.523438 470 390 470 Z M 390 470 " style=" stroke:none;fill-rule:nonzero;fill:#909090;fill-opacity:1;" />
<path d="M 70 130 C 75.523438 130 80 125.523438 80 120 L 80 30 C 80 24.476562 84.476562 20 90 20 L 133.40625 20 L 143.671875 43.941406 C 145.242188 47.617188 148.863281 50 152.859375 50 L 307.140625 50 C 311.136719 50 314.757812 47.617188 316.328125 43.941406 L 326.59375 20 L 370 20 C 375.523438 20 380 24.476562 380 30 L 380 120 C 380 125.523438 384.476562 130 390 130 C 395.523438 130 400 125.523438 400 120 L 400 30 C 400 13.433594 386.566406 0 370 0 L 90 0 C 73.433594 0 60 13.433594 60 30 L 60 120 C 60 125.523438 64.476562 130 70 130 Z M 304.828125 20 L 300.550781 30 L 159.449219 30 L 155.171875 20 Z M 304.828125 20 " style=" stroke:none;fill-rule:nonzero;fill:#909090;fill-opacity:1;" />
<path d="M 320 570 C 325.523438 570 330 565.523438 330 560 C 330 554.476562 325.523438 550 320 550 L 140 550 C 134.476562 550 130 554.476562 130 560 C 130 565.523438 134.476562 570 140 570 Z M 320 570 " style=" stroke:none;fill-rule:nonzero;fill:#909090;fill-opacity:1;" />
<path d="M 450 250 C 455.523438 250 460 245.523438 460 240 C 460 234.476562 455.523438 230 450 230 L 430 230 L 430 210 L 450 210 C 455.523438 210 460 205.523438 460 200 C 460 194.476562 455.523438 190 450 190 L 428.160156 190 C 423.9375 178.054688 412.664062 170.054688 400 170 L 380 170 L 380 150 C 380 144.476562 375.523438 140 370 140 C 364.476562 140 360 144.476562 360 150 L 360 170 L 340 170 L 340 150 C 340 144.476562 335.523438 140 330 140 C 324.476562 140 320 144.476562 320 150 L 320 170 L 300 170 L 300 150 C 300 144.476562 295.523438 140 290 140 C 284.476562 140 280 144.476562 280 150 L 280 170 L 260 170 L 260 150 C 260 144.476562 255.523438 140 250 140 C 244.476562 140 240 144.476562 240 150 L 240 170 L 220 170 L 220 150 C 220 144.476562 215.523438 140 210 140 C 204.476562 140 200 144.476562 200 150 L 200 170 L 180 170 L 180 150 C 180 144.476562 175.523438 140 170 140 C 164.476562 140 160 144.476562 160 150 L 160 170 L 140 170 L 140 150 C 140 144.476562 135.523438 140 130 140 C 124.476562 140 120 144.476562 120 150 L 120 170 L 100 170 L 100 150 C 100 144.476562 95.523438 140 90 140 C 84.476562 140 80 144.476562 80 150 L 80 170 L 60 170 C 47.335938 170.054688 36.0625 178.054688 31.839844 190 L 10 190 C 4.476562 190 0 194.476562 0 200 C 0 205.523438 4.476562 210 10 210 L 30 210 L 30 230 L 10 230 C 4.476562 230 0 234.476562 0 240 C 0 245.523438 4.476562 250 10 250 L 30 250 L 30 270 L 10 270 C 4.476562 270 0 274.476562 0 280 C 0 285.523438 4.476562 290 10 290 L 30 290 L 30 310 L 10 310 C 4.476562 310 0 314.476562 0 320 C 0 325.523438 4.476562 330 10 330 L 30 330 L 30 350 L 10 350 C 4.476562 350 0 354.476562 0 360 C 0 365.523438 4.476562 370 10 370 L 30 370 L 30 390 L 10 390 C 4.476562 390 0 394.476562 0 400 C 0 405.523438 4.476562 410 10 410 L 31.839844 410 C 36.0625 421.945312 47.335938 429.945312 60 430 L 80 430 L 80 450 C 80 455.523438 84.476562 460 90 460 C 95.523438 460 100 455.523438 100 450 L 100 430 L 120 430 L 120 450 C 120 455.523438 124.476562 460 130 460 C 135.523438 460 140 455.523438 140 450 L 140 430 L 160 430 L 160 450 C 160 455.523438 164.476562 460 170 460 C 175.523438 460 180 455.523438 180 450 L 180 430 L 200 430 L 200 450 C 200 455.523438 204.476562 460 210 460 C 215.523438 460 220 455.523438 220 450 L 220 430 L 240 430 L 240 450 C 240 455.523438 244.476562 460 250 460 C 255.523438 460 260 455.523438 260 450 L 260 430 L 280 430 L 280 450 C 280 455.523438 284.476562 460 290 460 C 295.523438 460 300 455.523438 300 450 L 300 430 L 320 430 L 320 450 C 320 455.523438 324.476562 460 330 460 C 335.523438 460 340 455.523438 340 450 L 340 430 L 360 430 L 360 450 C 360 455.523438 364.476562 460 370 460 C 375.523438 460 380 455.523438 380 450 L 380 430 L 400 430 C 412.664062 429.945312 423.9375 421.945312 428.160156 410 L 450 410 C 455.523438 410 460 405.523438 460 400 C 460 394.476562 455.523438 390 450 390 L 430 390 L 430 370 L 450 370 C 455.523438 370 460 365.523438 460 360 C 460 354.476562 455.523438 350 450 350 L 430 350 L 430 330 L 450 330 C 455.523438 330 460 325.523438 460 320 C 460 314.476562 455.523438 310 450 310 L 430 310 L 430 290 L 450 290 C 455.523438 290 460 285.523438 460 280 C 460 274.476562 455.523438 270 450 270 L 430 270 L 430 250 Z M 400 410 L 60 410 C 54.476562 410 50 405.523438 50 400 L 50 200 C 50 194.476562 54.476562 190 60 190 L 400 190 C 405.523438 190 410 194.476562 410 200 L 410 400 C 410 405.523438 405.523438 410 400 410 Z M 400 410 " style=" stroke:none;fill-rule:nonzero;fill:#909090;fill-opacity:1;" />
<path d="M 170 260 C 169.964844 232.398438 147.601562 210.035156 120 210 L 80 210 C 74.476562 210 70 214.476562 70 220 L 70 380 C 70 385.523438 74.476562 390 80 390 C 85.523438 390 90 385.523438 90 380 L 90 310 L 120 310 C 136.566406 310 150 323.433594 150 340 L 150 380 C 150 385.523438 154.476562 390 160 390 C 165.523438 390 170 385.523438 170 380 L 170 340 C 169.957031 324.199219 162.421875 309.359375 149.691406 300 C 162.421875 290.640625 169.957031 275.800781 170 260 Z M 120 290 L 90 290 L 90 230 L 120 230 C 136.566406 230 150 243.433594 150 260 C 150 276.566406 136.566406 290 120 290 Z M 120 290 " style=" stroke:none;fill-rule:nonzero;fill:#909090;fill-opacity:1;" />
<path d="M 382.300781 210.257812 C 377.78125 209.1875 373.121094 211.375 371.050781 215.53125 L 340 277.640625 L 309 215.53125 C 306.957031 211.3125 302.265625 209.082031 297.710938 210.152344 C 293.148438 211.226562 289.945312 215.316406 290 220 L 290 380 C 290 385.523438 294.476562 390 300 390 C 305.523438 390 310 385.523438 310 380 L 310 262.359375 L 331 304.46875 C 332.882812 307.621094 336.28125 309.554688 339.953125 309.554688 C 343.617188 309.554688 347.023438 307.621094 348.902344 304.46875 L 370 262.359375 L 370 380 C 370 385.523438 374.476562 390 380 390 C 385.523438 390 390 385.523438 390 380 L 390 220 C 390.003906 215.359375 386.816406 211.328125 382.300781 210.257812 Z M 382.300781 210.257812 " style=" stroke:none;fill-rule:nonzero;fill:#909090;fill-opacity:1;" />
<path d="M 250 210 L 210 210 C 193.433594 210 180 223.433594 180 240 L 180 380 C 180 385.523438 184.476562 390 190 390 C 195.523438 390 200 385.523438 200 380 L 200 310 L 260 310 L 260 380 C 260 385.523438 264.476562 390 270 390 C 275.523438 390 280 385.523438 280 380 L 280 240 C 280 223.433594 266.566406 210 250 210 Z M 200 290 L 200 240 C 200 234.476562 204.476562 230 210 230 L 250 230 C 255.523438 230 260 234.476562 260 240 L 260 290 Z M 200 290 " style=" stroke:none;fill-rule:nonzero;fill:#909090;fill-opacity:1;" />
</g>
</svg>